<?xml version="1.0" encoding="utf-8"?>
<!-- Generator: Adobe Illustrator 16.0.0, SVG Export Plug-In . SVG Version: 6.00 Build 0)  -->
<!DOCTYPE svg PUBLIC "-//W3C//DTD SVG 1.1//EN" "http://www.w3.org/Graphics/SVG/1.1/DTD/svg11.dtd">
<svg version="1.1" id="Layer_1" xmlns="http://www.w3.org/2000/svg" xmlns:xlink="http://www.w3.org/1999/xlink" x="0px" y="0px"
	 width="128px" height="128px" viewBox="0 0 128 128" enable-background="new 0 0 128 128" xml:space="preserve">
<g id="Layer_1-2">
	<polygon fill="#F26E23" points="57.738,58.913 57.738,91.276 38.427,79.789 38.427,47.173 	"/>
	<g id="Left_tick">
		<polygon fill="#58B647" points="57.738,95.19 57.738,101.19 36.854,88.667 36.854,82.662 		"/>
		<polygon fill="#58B647" points="57.738,103.016 57.738,109.016 36.854,96.491 36.854,90.496 		"/>
	</g>
	<polygon fill="#F69870" points="57.738,58.913 57.738,91.276 76.786,79.789 76.786,47.173 	"/>
	<g id="Left_M">
		<polygon fill="#394967" points="35.29,65.704 35.29,71.699 22.503,64.13 22.503,64.13 22.503,58.133 22.503,58.133 		"/>
		<polygon fill="#394967" points="35.29,73.793 35.29,79.789 22.503,71.963 22.503,71.963 22.503,65.956 22.503,65.956 		"/>
		<polygon fill="#394967" points="22.503,81.613 35.027,89.451 35.027,95.447 22.503,87.622 		"/>
		<polygon fill="#394967" points="35.29,42.475 35.29,48.472 22.503,40.647 22.503,40.647 22.503,34.639 22.503,34.639 		"/>
		<polygon fill="#394967" points="57.738,40.383 57.738,46.393 35.29,32.561 22.503,24.988 22.503,18.984 35.29,26.814 		"/>
		<polygon fill="#394967" points="57.738,48.219 57.738,54.215 35.29,40.647 22.503,32.813 22.503,26.814 35.29,34.639 		"/>
		<polygon fill="#394967" points="22.503,74.053 35.027,81.613 35.027,87.622 22.503,80.053 		"/>
		<polygon fill="#394967" points="35.29,50.045 35.29,56.043 22.503,48.219 22.503,48.219 22.503,42.21 22.503,42.21 		"/>
		<polygon fill="#394967" points="35.29,57.869 35.29,63.877 22.503,56.307 22.503,56.307 22.503,50.299 22.503,50.299 		"/>
	</g>
	<polygon fill="#394967" points="80.176,65.704 80.176,71.699 92.709,64.13 92.709,64.13 92.709,58.133 92.709,58.133 	"/>
	<polygon fill="#394967" points="80.176,73.793 80.176,79.789 92.709,71.963 92.709,71.963 92.709,65.956 92.709,65.956 	"/>
	<polygon fill="#394967" points="80.176,42.475 80.176,48.472 92.709,40.647 92.709,40.647 92.709,34.639 92.709,34.639 	"/>
	<polygon fill="#394967" points="57.738,40.383 57.738,46.393 80.176,32.561 92.709,24.988 92.709,18.984 80.176,26.814 	"/>
	<polygon fill="#394967" points="57.738,48.219 57.738,54.215 80.176,40.647 92.709,32.813 92.709,26.814 80.176,34.639 	"/>
	<polygon fill="#394967" points="80.176,50.045 80.176,56.043 92.709,48.219 92.709,48.219 92.709,42.21 92.709,42.21 	"/>
	<polygon fill="#394967" points="80.176,57.869 80.176,63.877 92.709,56.307 92.709,56.307 92.709,50.299 92.709,50.299 	"/>
	<g id="Left_tick-2">
		<polygon fill="#58B647" points="57.738,95.19 57.738,101.19 105.497,72.229 105.497,66.22 		"/>
		<polygon fill="#58B647" points="57.738,103.016 57.738,109.016 105.497,80.053 105.497,74.053 		"/>
	</g>
</g>
</svg>
