<?xml version="1.0" encoding="UTF-8"?> <svg xmlns="http://www.w3.org/2000/svg" xmlns:xlink="http://www.w3.org/1999/xlink" version="1.1" id="Layer_1" x="0px" y="0px" width="250px" height="60px" viewBox="-25 -5 250 60" xml:space="preserve"> <g id="Layer_1-2_17_"> <polygon fill="#F26F24" points="0.316,22.067 0.316,40.728 -10.817,34.103 -10.817,15.299 "></polygon> <g id="Left_tick_17_"> <polygon fill="#59B847" points="0.316,42.982 0.316,46.445 -11.726,39.224 -11.726,35.762 "></polygon> <polygon fill="#59B847" points="0.316,47.497 0.316,50.954 -11.726,43.733 -11.726,40.278 "></polygon> </g> <polygon fill="#F79870" points="0.316,22.067 0.316,40.728 11.299,34.103 11.299,15.299 "></polygon> <g id="Left_M_17_"> <polygon fill="#FFFFFF" points="-12.628,25.983 -12.628,29.439 -20,25.075 -20,25.075 -20,21.616 -20,21.616 "></polygon> <polygon fill="#FFFFFF" points="-12.628,30.648 -12.628,34.103 -20,29.593 -20,29.593 -20,26.128 -20,26.128 "></polygon> <polygon fill="#FFFFFF" points="-20,35.155 -12.779,39.675 -12.779,43.134 -20,38.62 "></polygon> <polygon fill="#FFFFFF" points="-12.628,12.59 -12.628,16.048 -20,11.537 -20,11.537 -20,8.075 -20,8.075 "></polygon> <polygon fill="#FFFFFF" points="0.316,11.385 0.316,14.849 -12.628,6.872 -20,2.506 -20,-0.954 -12.628,3.561 "></polygon> <polygon fill="#FFFFFF" points="0.316,15.9 0.316,19.36 -12.628,11.537 -20,7.021 -20,3.561 -12.628,8.075 "></polygon> <polygon fill="#FFFFFF" points="-20,30.796 -12.779,35.155 -12.779,38.62 -20,34.257 "></polygon> <polygon fill="#FFFFFF" points="-12.628,16.954 -12.628,20.415 -20,15.9 -20,15.9 -20,12.438 -20,12.438 "></polygon> <polygon fill="#FFFFFF" points="-12.628,21.465 -12.628,24.93 -20,20.563 -20,20.563 -20,17.102 -20,17.102 "></polygon> </g> <polygon fill="#FFFFFF" points="13.254,25.983 13.254,29.439 20.479,25.075 20.479,25.075 20.479,21.616 20.479,21.616 "></polygon> <polygon fill="#FFFFFF" points="13.254,30.648 13.254,34.103 20.479,29.593 20.479,29.593 20.479,26.128 20.479,26.128 "></polygon> <polygon fill="#FFFFFF" points="13.254,12.59 13.254,16.048 20.479,11.537 20.479,11.537 20.479,8.075 20.479,8.075 "></polygon> <polygon fill="#FFFFFF" points="0.316,11.385 0.316,14.849 13.254,6.872 20.479,2.506 20.479,-0.954 13.254,3.561 "></polygon> <polygon fill="#FFFFFF" points="0.316,15.9 0.316,19.36 13.254,11.537 20.479,7.021 20.479,3.561 13.254,8.075 "></polygon> <polygon fill="#FFFFFF" points="13.254,16.954 13.254,20.415 20.479,15.9 20.479,15.9 20.479,12.438 20.479,12.438 "></polygon> <polygon fill="#FFFFFF" points="13.254,21.465 13.254,24.93 20.479,20.563 20.479,20.563 20.479,17.102 20.479,17.102 "></polygon> <g id="Left_tick-2_17_"> <polygon fill="#59B847" points="0.316,42.982 0.316,46.445 27.851,29.743 27.851,26.283 "></polygon> <polygon fill="#59B847" points="0.316,47.497 0.316,50.954 27.851,34.257 27.851,30.796 "></polygon> </g> <g> <path fill="#FFFFFF" d="M60.684,6.892v18.955h-1.925V10.678l-7.524,12.761h-0.949l-7.372-12.683v15.043h-1.926V6.892h1.651 l8.233,14.052l8.158-14.052H60.684z"></path> <path fill="#FFFFFF" d="M81.75,20.772H71.218l-2.273,5.073h-2.123l8.667-18.958h1.986l8.666,18.958h-2.123L81.75,20.772z M81.026,19.15L76.508,8.979L72,19.15H81.026z"></path> <path fill="#FFFFFF" d="M108.13,6.892v18.955h-1.642L94.355,10.468v15.379h-2.074V6.892h1.657l12.217,15.37V6.892H108.13z"></path> </g> <g> <path fill="#FFFFFF" d="M120.077,6.892h7.716c1.839-0.04,3.664,0.37,5.315,1.197c1.478,0.771,2.712,1.932,3.576,3.361 c0.86,1.494,1.292,3.19,1.263,4.918c0.029,1.723-0.402,3.42-1.263,4.921c-0.857,1.429-2.096,2.587-3.576,3.337 c-1.651,0.828-3.477,1.243-5.315,1.21h-7.716V6.892z M127.688,24.119c1.515,0.027,3.014-0.313,4.36-0.996 c1.227-0.614,2.24-1.564,2.936-2.742c0.707-1.216,1.065-2.606,1.041-4.014c0.024-1.408-0.335-2.796-1.041-4.02 c-0.689-1.188-1.707-2.154-2.936-2.766c-1.347-0.69-2.846-1.03-4.36-0.996h-5.611v15.5L127.688,24.119z"></path> </g> <g> <path fill="#FFFFFF" d="M157.99,20.772h-10.532l-2.272,5.073h-2.079l8.668-18.958h1.97l8.669,18.958h-2.107L157.99,20.772z M157.266,19.15l-4.509-10.171l-4.519,10.171H157.266z"></path> </g> <g> <path fill="#FFFFFF" d="M172.182,8.618h-6.667V6.892h15.336v1.727h-6.668v17.229h-1.999V8.618H172.182z"></path> </g> <g> <path fill="#FFFFFF" d="M187.979,6.892h2.001v17.228h10.629v1.728h-12.63V6.892z"></path> </g> <g> <path fill="#FFFFFF" d="M212.355,19.286v6.56h-1.971v-6.56L202.86,6.892h2.137l6.502,10.634l6.5-10.634H220L212.355,19.286z"></path> </g> <g> <path fill="#FFFFFF" d="M46.614,31.532c1.166,1.079,1.229,2.899,0.149,4.064c-0.045,0.049-0.099,0.1-0.149,0.146 c-0.72,0.549-1.614,0.813-2.513,0.759h-2.241v2.646h-0.887v-8.382h3.129C45.001,30.712,45.896,30.982,46.614,31.532z M45.981,35.155c0.854-0.804,0.889-2.141,0.082-2.997c-0.027-0.028-0.052-0.058-0.082-0.081c-0.546-0.414-1.231-0.608-1.913-0.562 h-2.209v4.203h2.209C44.75,35.764,45.435,35.569,45.981,35.155z"></path> <path fill="#FFFFFF" d="M50.814,33.131c0.463-0.233,0.979-0.345,1.502-0.32v0.844h-0.239c-0.563-0.021-1.112,0.2-1.506,0.604 c-0.401,0.477-0.6,1.095-0.555,1.712v3.208h-0.861v-6.32h0.814v1.231C50.139,33.69,50.438,33.353,50.814,33.131z"></path> <path fill="#FFFFFF" d="M53.732,31.306c-0.117-0.115-0.185-0.272-0.184-0.438c-0.001-0.156,0.067-0.31,0.184-0.415 c0.112-0.123,0.272-0.185,0.434-0.185c0.173-0.009,0.331,0.062,0.449,0.185c0.117,0.102,0.186,0.244,0.185,0.402 c0.004,0.17-0.065,0.331-0.185,0.449c-0.123,0.111-0.281,0.17-0.449,0.168C54.003,31.472,53.852,31.408,53.732,31.306z M53.732,32.811h0.844v6.294h-0.844V32.811z"></path> <path fill="#FFFFFF" d="M62.311,32.857l-2.799,6.291h-0.876l-2.781-6.291h0.887l2.346,5.313l2.38-5.36L62.311,32.857z"></path> <path fill="#FFFFFF" d="M67.409,33.424c0.47,0.487,0.713,1.147,0.659,1.827v3.892H67.27v-0.972 c-0.188,0.336-0.488,0.605-0.844,0.76c-0.407,0.194-0.854,0.289-1.303,0.277c-0.604,0.028-1.198-0.145-1.688-0.499 c-0.406-0.326-0.632-0.819-0.619-1.34c-0.016-0.488,0.2-0.959,0.572-1.281c0.543-0.371,1.195-0.548,1.854-0.493h2.027v-0.439 c0.037-0.459-0.13-0.914-0.449-1.246c-0.372-0.302-0.845-0.452-1.325-0.418c-0.393-0.004-0.786,0.062-1.159,0.19 c-0.342,0.13-0.663,0.312-0.948,0.539l-0.436-0.566c0.339-0.278,0.728-0.497,1.142-0.63c0.458-0.14,0.935-0.214,1.416-0.214 C66.199,32.762,66.885,32.978,67.409,33.424z M66.442,38.171c0.354-0.23,0.625-0.575,0.771-0.963v-1.024h-1.97 c-1.083,0-1.615,0.371-1.615,1.126c-0.014,0.333,0.14,0.655,0.409,0.861c0.347,0.234,0.756,0.35,1.174,0.33 C65.645,38.507,66.074,38.393,66.442,38.171z"></path> <path fill="#FFFFFF" d="M71.338,38.8c-0.486-0.267-0.892-0.657-1.163-1.143c-0.563-1.03-0.563-2.279,0-3.31 c0.278-0.479,0.681-0.864,1.163-1.128c0.509-0.279,1.084-0.42,1.665-0.409c0.524-0.013,1.041,0.093,1.51,0.32 c0.421,0.196,0.775,0.518,1.021,0.916l-0.649,0.438c-0.188-0.3-0.463-0.549-0.782-0.712c-0.322-0.151-0.678-0.226-1.036-0.222 c-0.43-0.004-0.855,0.098-1.238,0.295c-0.361,0.208-0.649,0.508-0.837,0.877c-0.216,0.396-0.32,0.833-0.305,1.276 c-0.017,0.445,0.086,0.891,0.305,1.281c0.171,0.362,0.45,0.674,0.796,0.891c0.379,0.197,0.803,0.303,1.231,0.299 c0.358-0.021,0.709-0.128,1.023-0.299c0.32-0.158,0.587-0.396,0.783-0.693l0.645,0.42c-0.245,0.401-0.6,0.727-1.022,0.932 c-0.472,0.22-0.988,0.332-1.504,0.313C72.391,39.163,71.835,39.046,71.338,38.8z"></path> <path fill="#FFFFFF" d="M82.32,32.857l-3.144,7.044c-0.189,0.489-0.493,0.919-0.891,1.257c-0.353,0.251-0.771,0.375-1.199,0.366 c-0.29,0.002-0.578-0.045-0.844-0.136c-0.262-0.094-0.498-0.242-0.691-0.435l0.387-0.64c0.308,0.319,0.723,0.489,1.156,0.485 c0.267,0.002,0.527-0.077,0.738-0.24c0.244-0.227,0.432-0.503,0.556-0.813l0.288-0.616l-2.814-6.273h0.887l2.361,5.313 l2.379-5.346L82.32,32.857z"></path> <path fill="#FFFFFF" d="M88.22,38.662c-0.63-0.354-1.153-0.872-1.509-1.503c-0.747-1.355-0.747-3.002,0-4.361 c0.383-0.64,0.926-1.16,1.583-1.51c0.659-0.387,1.413-0.61,2.18-0.64c0.589-0.005,1.178,0.095,1.732,0.298 c0.508,0.201,0.969,0.516,1.338,0.917l-0.572,0.56c-0.647-0.668-1.542-1.026-2.467-0.996c-0.633-0.008-1.252,0.146-1.807,0.448 c-1.65,0.986-2.22,3.11-1.278,4.783c0.311,0.528,0.751,0.956,1.278,1.254c0.555,0.303,1.174,0.456,1.807,0.451 c0.926,0.036,1.82-0.327,2.467-0.994l0.572,0.555c-0.378,0.398-0.842,0.72-1.351,0.922c-0.551,0.215-1.133,0.319-1.72,0.313 C89.691,39.196,88.917,39.021,88.22,38.662z"></path> <path fill="#FFFFFF" d="M95.861,38.8c-1.542-0.949-2.044-2.949-1.144-4.514c0.275-0.473,0.667-0.865,1.144-1.13 c0.505-0.266,1.068-0.412,1.641-0.402c0.572-0.012,1.141,0.131,1.639,0.402c0.476,0.266,0.874,0.657,1.148,1.13 c0.536,1.036,0.536,2.272,0,3.31c-0.276,0.476-0.673,0.873-1.148,1.146c-0.499,0.271-1.067,0.412-1.639,0.401 C96.934,39.173,96.37,39.049,95.861,38.8z M98.754,38.171c0.354-0.209,0.639-0.51,0.826-0.874c0.397-0.808,0.397-1.753,0-2.555 c-0.187-0.369-0.472-0.67-0.826-0.878c-0.756-0.398-1.659-0.398-2.412,0c-0.351,0.212-0.635,0.513-0.828,0.878 c-0.417,0.799-0.417,1.758,0,2.555c0.193,0.36,0.477,0.661,0.828,0.874C97.097,38.569,97.999,38.569,98.754,38.171z"></path> <path fill="#FFFFFF" d="M112.188,33.491c0.49,0.554,0.733,1.282,0.677,2.012v3.646h-0.857v-3.563 c0.041-0.552-0.123-1.086-0.461-1.508c-0.357-0.354-0.842-0.545-1.346-0.508c-0.563-0.023-1.112,0.192-1.504,0.599 c-0.401,0.463-0.607,1.059-0.568,1.675v3.287h-0.844v-3.545c0.036-0.552-0.136-1.088-0.484-1.508 c-0.35-0.358-0.839-0.549-1.34-0.508c-0.563-0.023-1.108,0.192-1.504,0.599c-0.399,0.465-0.611,1.073-0.573,1.682v3.299h-0.899 v-6.292h0.813v1.142c0.22-0.379,0.544-0.686,0.931-0.887c0.429-0.205,0.897-0.311,1.37-0.302c0.477-0.013,0.949,0.098,1.371,0.332 c0.39,0.23,0.697,0.579,0.869,0.993c0.227-0.416,0.573-0.76,0.998-0.979c0.465-0.237,0.979-0.354,1.502-0.346 C111.02,32.778,111.689,33.022,112.188,33.491z"></path> <path fill="#FFFFFF" d="M120.012,33.204c0.475,0.262,0.868,0.652,1.132,1.125c0.272,0.516,0.413,1.087,0.402,1.67 c0.015,0.584-0.129,1.16-0.402,1.676c-0.255,0.475-0.643,0.865-1.113,1.125c-0.5,0.278-1.05,0.413-1.611,0.408 c-0.481,0.005-0.956-0.1-1.383-0.316c-0.422-0.211-0.771-0.535-1.011-0.936v3.507h-0.856v-8.605h0.813v1.245 c0.244-0.399,0.593-0.73,1.007-0.962c0.44-0.226,0.932-0.339,1.43-0.332C118.97,32.807,119.521,32.94,120.012,33.204z M119.545,38.171c0.359-0.206,0.657-0.51,0.844-0.874c0.402-0.808,0.402-1.753,0-2.555c-0.188-0.365-0.485-0.662-0.844-0.861 c-0.74-0.42-1.653-0.42-2.389,0c-0.354,0.199-0.65,0.498-0.844,0.861c-0.401,0.804-0.401,1.749,0,2.555 c0.191,0.362,0.488,0.661,0.844,0.874c0.36,0.198,0.78,0.305,1.198,0.299C118.772,38.472,119.178,38.366,119.545,38.171z"></path> <path fill="#FFFFFF" d="M123.275,30.269h0.861v8.874h-0.861V30.269z"></path> <path fill="#FFFFFF" d="M126.483,31.306c-0.118-0.115-0.183-0.272-0.181-0.438c0-0.156,0.064-0.31,0.181-0.415 c0.119-0.125,0.284-0.193,0.449-0.185c0.165,0,0.321,0.062,0.437,0.185c0.116,0.102,0.186,0.244,0.179,0.402 c0.009,0.17-0.059,0.331-0.179,0.449c-0.12,0.103-0.273,0.166-0.437,0.168S126.606,31.417,126.483,31.306z M126.483,32.811h0.844 v6.294h-0.844V32.811z"></path> <path fill="#FFFFFF" d="M133.813,33.424c0.469,0.487,0.709,1.147,0.661,1.827v3.892h-0.826v-0.972 c-0.194,0.336-0.489,0.605-0.845,0.76c-0.409,0.194-0.86,0.289-1.31,0.277c-0.604,0.028-1.196-0.145-1.684-0.499 c-0.403-0.326-0.632-0.819-0.622-1.34c-0.01-0.488,0.198-0.959,0.575-1.281c0.539-0.371,1.195-0.548,1.851-0.493h1.999v-0.439 c0.039-0.459-0.128-0.914-0.448-1.246c-0.373-0.302-0.847-0.452-1.328-0.418c-0.388-0.004-0.783,0.062-1.156,0.19 c-0.345,0.13-0.662,0.312-0.945,0.539l-0.375-0.566c0.338-0.278,0.719-0.497,1.141-0.63c0.46-0.14,0.936-0.214,1.417-0.214 C132.604,32.762,133.285,32.978,133.813,33.424z M132.852,38.171c0.352-0.23,0.615-0.575,0.762-0.963v-1.024h-1.971 c-1.082,0-1.61,0.371-1.61,1.126c-0.006,0.342,0.155,0.659,0.438,0.861c0.345,0.234,0.763,0.35,1.173,0.33 C132.066,38.503,132.484,38.389,132.852,38.171z"></path> <path fill="#FFFFFF" d="M141.861,33.491c0.499,0.542,0.752,1.278,0.708,2.012v3.646h-0.858v-3.563 c0.037-0.552-0.135-1.088-0.481-1.508c-0.376-0.358-0.878-0.549-1.401-0.508c-0.596-0.038-1.179,0.177-1.606,0.599 c-0.424,0.447-0.646,1.055-0.604,1.675v3.287h-0.844v-6.273h0.814v1.159c0.233-0.385,0.564-0.689,0.963-0.886 c0.444-0.224,0.936-0.333,1.431-0.32C140.672,32.78,141.348,33.022,141.861,33.491z"></path> <path fill="#FFFFFF" d="M145.836,38.8c-0.489-0.267-0.897-0.657-1.16-1.143c-0.544-1.034-0.544-2.275,0-3.31 c0.273-0.479,0.675-0.864,1.16-1.128c0.509-0.277,1.086-0.418,1.669-0.409c0.518-0.013,1.033,0.095,1.503,0.32 c0.415,0.199,0.766,0.52,1.008,0.916l-0.63,0.438c-0.206-0.298-0.475-0.545-0.802-0.712c-0.323-0.151-0.679-0.226-1.036-0.222 c-0.432-0.002-0.854,0.1-1.232,0.295c-0.355,0.211-0.653,0.513-0.844,0.877c-0.206,0.398-0.305,0.833-0.301,1.276 c-0.006,0.443,0.095,0.889,0.301,1.281c0.19,0.361,0.488,0.666,0.844,0.873c0.379,0.201,0.801,0.303,1.232,0.301 c0.34-0.026,0.671-0.122,0.977-0.284c0.322-0.16,0.599-0.398,0.797-0.693l0.633,0.42c-0.242,0.4-0.597,0.727-1.022,0.931 c-0.469,0.228-0.982,0.333-1.503,0.313C146.875,39.159,146.333,39.042,145.836,38.8z"></path> <path fill="#FFFFFF" d="M157,36.257h-5.267c0.024,0.611,0.305,1.188,0.767,1.592c0.473,0.416,1.087,0.631,1.711,0.605 c0.374,0,0.743-0.069,1.083-0.21c0.322-0.141,0.611-0.352,0.844-0.617l0.484,0.563c-0.293,0.332-0.651,0.59-1.053,0.761 c-0.442,0.177-0.911,0.26-1.384,0.258c-0.6,0.014-1.188-0.128-1.718-0.408c-0.485-0.268-0.883-0.659-1.16-1.143 c-0.283-0.507-0.43-1.078-0.419-1.658c-0.009-0.574,0.134-1.146,0.4-1.653c0.255-0.478,0.641-0.861,1.101-1.127 c0.46-0.27,0.98-0.41,1.508-0.41c0.528,0,1.044,0.141,1.503,0.41c0.456,0.272,0.835,0.658,1.101,1.127 c0.265,0.514,0.396,1.08,0.389,1.653L157,36.257z M152.482,34.121c-0.41,0.396-0.665,0.931-0.708,1.501h4.519 c-0.035-0.57-0.292-1.109-0.706-1.501c-0.865-0.751-2.152-0.751-3.016,0H152.482z"></path> <path fill="#FFFFFF" d="M162.58,38.921c-0.499-0.153-0.955-0.426-1.329-0.797l0.349-0.677c0.346,0.332,0.766,0.585,1.221,0.742 c0.483,0.174,0.991,0.271,1.507,0.281c0.591,0.049,1.182-0.104,1.682-0.418c0.361-0.238,0.57-0.646,0.559-1.072 c0.02-0.301-0.092-0.587-0.302-0.795c-0.212-0.212-0.462-0.371-0.735-0.467c-0.406-0.139-0.818-0.256-1.238-0.344 c-0.503-0.129-1.009-0.288-1.502-0.467c-0.371-0.149-0.699-0.383-0.964-0.682c-0.273-0.35-0.414-0.788-0.39-1.232 c-0.006-0.406,0.11-0.801,0.33-1.143c0.257-0.373,0.609-0.665,1.023-0.844c0.555-0.211,1.14-0.316,1.73-0.305 c0.473-0.004,0.944,0.067,1.4,0.201c0.424,0.117,0.822,0.293,1.185,0.539l-0.282,0.708c-0.352-0.221-0.731-0.402-1.131-0.523 c-0.377-0.109-0.774-0.16-1.173-0.166c-0.583-0.047-1.167,0.102-1.652,0.415c-0.358,0.253-0.57,0.669-0.562,1.101 c-0.011,0.294,0.1,0.583,0.303,0.797c0.221,0.211,0.483,0.373,0.767,0.467c0.405,0.143,0.817,0.268,1.237,0.363 c0.504,0.116,1.013,0.267,1.502,0.45c0.372,0.139,0.703,0.367,0.966,0.664c0.277,0.344,0.418,0.774,0.389,1.215 c0.006,0.416-0.109,0.814-0.336,1.16c-0.261,0.375-0.625,0.666-1.047,0.827c-0.554,0.212-1.14,0.315-1.73,0.303 C163.752,39.222,163.149,39.118,162.58,38.921z"></path> <path fill="#FFFFFF" d="M170.178,38.8c-0.479-0.271-0.874-0.666-1.155-1.143c-0.562-1.03-0.562-2.279,0-3.31 c0.279-0.479,0.675-0.864,1.155-1.128c1.022-0.546,2.245-0.546,3.268,0c0.48,0.26,0.879,0.645,1.147,1.128 c0.563,1.03,0.563,2.279,0,3.31c-0.274,0.477-0.671,0.875-1.147,1.143C172.423,39.343,171.199,39.343,170.178,38.8z M173.008,38.153c0.355-0.207,0.649-0.512,0.844-0.873c0.382-0.813,0.382-1.75,0-2.556c-0.194-0.365-0.488-0.662-0.844-0.873 c-0.749-0.398-1.645-0.398-2.394,0c-0.357,0.203-0.65,0.504-0.838,0.873c-0.402,0.803-0.402,1.752,0,2.556 c0.188,0.362,0.48,0.674,0.838,0.873C171.363,38.552,172.259,38.552,173.008,38.153z"></path> <path fill="#FFFFFF" d="M177.985,31.233c-0.2,0.252-0.306,0.564-0.285,0.885v0.739h1.94v0.797h-1.905v5.569h-0.862v-5.569h-1.115 v-0.726h1.115V32.15c-0.067-0.964,0.65-1.802,1.611-1.869c0.099-0.009,0.201-0.007,0.298,0.002 c0.241-0.002,0.469,0.036,0.694,0.106c0.205,0.057,0.393,0.157,0.556,0.288l-0.29,0.646c-0.257-0.221-0.589-0.33-0.931-0.316 C178.521,30.96,178.22,31.042,177.985,31.233z"></path> <path fill="#FFFFFF" d="M184.112,38.768c-0.177,0.14-0.379,0.251-0.604,0.318c-0.236,0.086-0.479,0.127-0.733,0.122 c-0.923,0.094-1.743-0.566-1.84-1.489c-0.013-0.116-0.013-0.234,0-0.349v-3.716h-1.128v-0.726h1.128v-1.382h0.844v1.382h1.925 v0.726h-1.925V37.4c-0.015,0.318,0.083,0.617,0.291,0.861c0.216,0.209,0.505,0.314,0.811,0.294c0.175,0,0.347-0.025,0.508-0.085 c0.157-0.057,0.3-0.139,0.426-0.236L184.112,38.768z"></path> <path fill="#FFFFFF" d="M194.763,32.857l-2.372,6.291h-0.802l-1.986-5.166l-1.952,5.166h-0.814l-2.364-6.291h0.814l1.944,5.313 l2.024-5.346h0.725l2.017,5.346l1.986-5.346L194.763,32.857z"></path> <path fill="#FFFFFF" d="M199.941,33.424c0.471,0.487,0.714,1.147,0.667,1.827v3.892h-0.817v-0.972 c-0.201,0.33-0.489,0.597-0.84,0.76c-0.418,0.194-0.868,0.291-1.327,0.277c-0.597,0.028-1.186-0.143-1.67-0.499 c-0.406-0.32-0.642-0.817-0.63-1.34c-0.027-0.492,0.189-0.976,0.588-1.281c0.538-0.371,1.19-0.548,1.849-0.493h2.006v-0.439 c0.024-0.466-0.142-0.916-0.467-1.246c-0.371-0.304-0.846-0.456-1.329-0.418c-0.393-0.004-0.774,0.062-1.143,0.19 c-0.344,0.124-0.669,0.301-0.946,0.539l-0.396-0.623c0.345-0.284,0.74-0.495,1.155-0.636c0.461-0.139,0.937-0.209,1.419-0.209 C198.751,32.715,199.431,32.962,199.941,33.424z M198.994,38.171c0.34-0.238,0.611-0.575,0.771-0.963v-1.024h-1.986 c-1.071,0-1.614,0.371-1.614,1.126c-0.009,0.34,0.145,0.657,0.424,0.861c0.344,0.238,0.753,0.354,1.173,0.33 C198.195,38.507,198.621,38.393,198.994,38.171z"></path> <path fill="#FFFFFF" d="M204.621,33.131c0.465-0.233,0.986-0.345,1.504-0.32v0.844h-0.193c-0.563-0.021-1.104,0.2-1.503,0.604 c-0.405,0.477-0.601,1.095-0.556,1.712v3.208h-0.861v-6.32h0.813v1.231C203.988,33.696,204.265,33.362,204.621,33.131z"></path> <path fill="#FFFFFF" d="M213.032,36.257h-5.267c0.023,0.611,0.298,1.188,0.753,1.592c0.482,0.418,1.101,0.631,1.729,0.605 c0.369,0.002,0.729-0.067,1.071-0.21c0.329-0.139,0.622-0.348,0.856-0.617l0.485,0.563c-0.293,0.332-0.653,0.59-1.054,0.761 c-0.445,0.177-0.916,0.26-1.389,0.258c-0.596,0.014-1.186-0.128-1.718-0.408c-0.48-0.268-0.877-0.659-1.155-1.143 c-0.288-0.507-0.43-1.078-0.42-1.658c-0.006-0.572,0.128-1.138,0.392-1.653c0.259-0.469,0.639-0.854,1.1-1.127 c0.455-0.265,0.975-0.404,1.501-0.41c0.534,0,1.05,0.141,1.504,0.41c0.461,0.272,0.841,0.658,1.102,1.127 c0.264,0.514,0.396,1.08,0.384,1.653L213.032,36.257z M208.519,34.121c-0.419,0.392-0.675,0.931-0.708,1.501h4.518 c-0.04-0.57-0.293-1.105-0.71-1.501c-0.86-0.751-2.146-0.751-3.011,0H208.519z"></path> </g> </g> </svg> 